<svg width="70" height="69" viewBox="0 0 70 69" fill="none" xmlns="http://www.w3.org/2000/svg">
<g clip-path="url(#clip0_28_14681)">
<path fill-rule="evenodd" clip-rule="evenodd" d="M34.84 6.20361C27.3078 6.20361 20.2342 7.78691 13.9409 11.1515C17.6275 12.988 22.5925 14.487 26.8212 15.3767C26.9859 15.2147 27.1305 15.0612 27.2665 14.8883C27.1832 14.5024 27.0041 13.8942 26.9487 13.5697C27.8172 12.9751 30.5472 11.873 30.5472 11.873L30.191 8.54947L31.6235 8.03721L32.9746 11.3321C42.31 10.5359 43.282 14.6274 43.8269 15.8266C48.4549 15.1439 53.1555 13.6732 56.7014 11.7007C51.6388 8.72566 43.8728 6.20361 34.84 6.20361Z" fill="#A6D3DF"/>
<path fill-rule="evenodd" clip-rule="evenodd" d="M5.22559 18.1661C7.6789 18.9465 12.6277 20.3651 21.0217 21.6386C21.7351 20.5537 25.1068 17.2675 25.9217 16.3149C19.3411 15.0558 14.2632 12.8515 12.4266 12.0195C10.0097 13.4565 7.25952 15.6423 5.22559 18.1661ZM44.3177 22.6009C54.1607 22.0656 62.1709 20.0535 65.2148 18.9911C63.3667 16.4594 60.4338 14.0005 58.0428 12.5145C56.3332 13.45 51.7044 15.6082 44.1664 16.7558C44.8864 18.5764 44.3177 22.6009 44.3177 22.6009Z" fill="#A6D3DF"/>
<path fill-rule="evenodd" clip-rule="evenodd" d="M0.866699 29.1776C3.47138 29.1776 26.1784 29.1776 26.1784 29.1776C27.9892 26.0418 32.0856 24.0291 32.0856 24.0291C32.0856 24.0291 29.367 23.8672 27.7681 23.7916C26.5394 24.7778 23.9434 27.3067 21.2565 22.9509C15.5484 22.2494 8.6673 20.6805 4.37149 19.2866C1.76489 22.9011 0.960429 26.4094 0.866699 29.1776ZM69.0125 29.1776C68.9753 26.3477 67.9812 23.1918 66.1781 20.3796C64.3263 20.9038 56.7145 23.2606 44.0428 23.9531C43.747 25.7096 43.1227 27.6602 42.9904 29.1778C44.1232 29.173 67.0026 29.1776 69.0125 29.1776Z" fill="#A6D3DF"/>
<path fill-rule="evenodd" clip-rule="evenodd" d="M0.876953 30.5124C1.95135 30.4995 25.3861 30.5181 25.3861 30.5181C24.8431 31.5675 24.3854 33.8886 24.4945 35.1136C11.2321 36.2766 5.41676 38.3966 3.55808 38.9651C2.19453 36.7327 1.04355 34.0082 0.876953 30.5124ZM42.8589 30.5181C43.7973 30.5152 68.2156 30.5152 69.0054 30.5181C68.8304 34.375 67.281 37.4535 66.0227 39.3425C64.437 38.8877 56.4757 36.3082 44.1986 35.196C43.6174 34.4309 42.6598 32.6102 42.8589 30.5181Z" fill="#A6D3DF"/>
<path fill-rule="evenodd" clip-rule="evenodd" d="M4.33105 40.135C5.67169 39.6293 13.1207 37.199 24.6134 36.3584C24.6958 37.61 25.1066 39.051 25.1066 39.051C25.1066 39.051 43.8637 39.0406 44.483 39.0481C45.4504 37.9864 44.9437 36.5357 44.9437 36.5357C54.2099 37.2624 63.5187 39.9361 65.1849 40.5243C63.3472 42.984 60.441 45.5533 57.3529 47.366C54.7808 46.3765 48.0413 43.3368 39.045 42.6101C40.0218 41.2293 43.6117 40.9077 44.4878 40.7784L44.4926 39.4702L25.1018 39.4654L25.1066 40.784C25.1066 40.784 29.2722 40.8338 30.2776 42.5151C19.0883 43.4507 13.2854 47.0865 12.5969 47.5353C9.40525 45.6515 6.3584 43.0471 4.33105 40.135Z" fill="#A6D3DF"/>
<path fill-rule="evenodd" clip-rule="evenodd" d="M55.7784 48.2574C52.8734 49.8426 49.0852 51.2315 45.5623 52.018V46.5138C44.3163 46.5282 43.9219 46.5565 43.1463 46.554C41.434 46.5473 40.3971 46.3874 39.5468 45.7794C38.6312 45.1248 38.5528 44.1357 38.66 43.6694C48.4207 44.5603 55.7784 48.2574 55.7784 48.2574Z" fill="#A6D3DF"/>
<path fill-rule="evenodd" clip-rule="evenodd" d="M23.655 51.9387C19.9884 51.0808 16.5728 49.749 13.8589 48.2537C16.7891 46.2568 22.7386 44.021 30.7793 43.5137C30.8693 43.8182 30.9526 45.1767 29.9146 45.8506C28.5109 46.7605 23.655 46.4713 23.655 46.4713V51.9387Z" fill="#A6D3DF"/>
<path d="M26.0146 48.062H29.6176V49.1546H27.3524V50.5019H29.4687V51.5855H27.3524V53.9555H26.0146V48.062Z" fill="#A6D3DF"/>
<path d="M31.9578 48.0615V53.955H30.6196V48.0615H31.9578Z" fill="#A6D3DF"/>
<path d="M33.1138 48.1406C33.603 48.0621 34.2418 48.0181 34.915 48.0181C36.0345 48.0181 36.7602 48.219 37.329 48.6481C37.9408 49.1026 38.3257 49.8283 38.3257 50.8686C38.3257 51.997 37.915 52.7751 37.3462 53.2566C36.7253 53.7723 35.7806 54.0168 34.6268 54.0168C33.9354 54.0168 33.446 53.9733 33.1138 53.9297V48.1406ZM34.4515 52.9503C34.5656 52.9761 34.7489 52.9761 34.915 52.9761C36.1221 52.9852 36.9091 52.3209 36.9091 50.9128C36.9177 49.6885 36.2011 49.0411 35.0548 49.0411C34.7578 49.0411 34.5654 49.0676 34.4515 49.0939V52.9503Z" fill="#A6D3DF"/>
<path d="M42.7059 51.4632H40.5368V52.8626H42.9594V53.955H39.1992V48.0615H42.837V49.1541H40.5368V50.3788H42.7059V51.4632Z" fill="#A6D3DF"/>
<path d="M9.20989 62.4859C8.86036 62.6031 8.19876 62.7649 7.53702 62.7649C6.6225 62.7649 5.96035 62.5373 5.49925 62.0962C5.03828 61.6696 4.78536 61.0223 4.79263 60.2946C4.80032 58.6478 6.0125 57.7065 7.65573 57.7065C8.30306 57.7065 8.80094 57.8309 9.04604 57.9486L8.80862 58.8459C8.53333 58.7283 8.19094 58.6324 7.64091 58.6324C6.69633 58.6324 5.98272 59.1618 5.98272 60.2357C5.98272 61.2581 6.62964 61.8612 7.55884 61.8612C7.81945 61.8612 8.02722 61.8315 8.11669 61.7876V60.7505H7.34338V59.8752H9.20975L9.20989 62.4859Z" fill="#A6D3DF"/>
<path d="M13.0781 60.6145H11.2343V61.7909H13.2941V62.7102H10.0962V57.7539H13.1897V58.6728H11.2343V59.7025H13.0781V60.6145Z" fill="#A6D3DF"/>
<path d="M14.0708 62.7103V57.754H15.3947L16.436 59.5701C16.7328 60.0924 17.0306 60.7104 17.2538 61.2686H17.2757C17.2015 60.6145 17.1791 59.9452 17.1791 59.2022V57.7539H18.2203V62.7102H17.0306L15.9601 60.7984C15.6623 60.2688 15.3353 59.6292 15.0896 59.0481L15.0675 59.0556C15.0972 59.7098 15.1121 60.4085 15.1121 61.2173V62.7102H14.0708V62.7103Z" fill="#A6D3DF"/>
<path d="M19.2398 61.5582C19.5443 61.7124 20.0131 61.8665 20.4961 61.8665C21.0169 61.8665 21.2918 61.6538 21.2918 61.3304C21.2918 61.021 21.0542 60.8448 20.4519 60.6312C19.6188 60.3449 19.0759 59.8887 19.0759 59.1682C19.0759 58.3227 19.7898 57.6753 20.9718 57.6753C21.5372 57.6753 21.9534 57.793 22.2512 57.9253L21.9984 58.8302C21.7974 58.7345 21.4406 58.5947 20.9498 58.5947C20.4591 58.5947 20.2211 58.8148 20.2211 59.0724C20.2211 59.3884 20.5035 59.5281 21.1509 59.7714C22.0357 60.0944 22.4517 60.5507 22.4517 61.2488C22.4517 62.0801 21.8049 62.7857 20.4289 62.7857C19.8568 62.7857 19.2912 62.6393 19.0088 62.4846L19.2398 61.5582Z" fill="#A6D3DF"/>
<path d="M25.8533 57.7588V60.6118C25.8533 61.4651 26.1804 61.8987 26.7602 61.8987C27.3552 61.8987 27.6824 61.487 27.6824 60.6118V57.7588H28.8133V60.5381C28.8133 62.0682 28.0319 62.7959 26.7234 62.7959C25.4589 62.7959 24.7158 62.1046 24.7158 60.5237V57.7588H25.8533Z" fill="#A6D3DF"/>
<path d="M29.7969 62.7103V57.754H31.1204L32.1617 59.5701C32.4591 60.0924 32.7569 60.7104 32.98 61.2686H33.002C32.9273 60.6145 32.9053 59.9452 32.9053 59.2022V57.7539H33.9461V62.7102H32.7567L31.6856 60.7984C31.3884 60.2688 31.0609 59.6292 30.8157 59.0481L30.7936 59.0556C30.8232 59.7098 30.8377 60.4085 30.8377 61.2173V62.7102H29.7969V62.7103Z" fill="#A6D3DF"/>
<path d="M36.1006 61.4429L35.7432 62.7151H34.5684L36.1006 57.7588H37.5876L39.1419 62.7151H37.9222L37.5359 61.4429H36.1006ZM37.3722 60.6046L37.0601 59.5527C36.9705 59.2588 36.8809 58.8912 36.8072 58.5972H36.7919C36.7177 58.8912 36.6436 59.2665 36.5615 59.5527L36.2643 60.6046H37.3722Z" fill="#A6D3DF"/>
<path d="M41.3468 61.5582C41.6523 61.7124 42.1207 61.8665 42.6043 61.8665C43.124 61.8665 43.4 61.6538 43.4 61.3304C43.4 61.021 43.1616 60.8448 42.5593 60.6312C41.7266 60.3449 41.1837 59.8887 41.1837 59.1682C41.1837 58.3227 41.8974 57.6753 43.0801 57.6753C43.6451 57.6753 44.0616 57.793 44.3588 57.9253L44.1059 58.8302C43.9054 58.7345 43.5483 58.5947 43.0574 58.5947C42.5666 58.5947 42.3287 58.8148 42.3287 59.0724C42.3287 59.3884 42.6113 59.5281 43.2579 59.7714C44.1428 60.0944 44.5593 60.5507 44.5593 61.2488C44.5593 62.0801 43.9124 62.7857 42.5369 62.7857C41.9641 62.7857 41.3993 62.6393 41.1167 62.4846L41.3468 61.5582Z" fill="#A6D3DF"/>
<path d="M46.4593 57.7588V60.6118C46.4593 61.4651 46.7869 61.8987 47.3665 61.8987C47.9617 61.8987 48.2886 61.487 48.2886 60.6118V57.7588H49.4191V60.5381C49.4191 62.0682 48.6383 62.7959 47.3296 62.7959C46.0652 62.7959 45.3218 62.1046 45.3218 60.5237V57.7588H46.4593Z" fill="#A6D3DF"/>
<path d="M54.6428 60.8177C54.6204 60.2221 54.5979 59.5015 54.5979 58.781H54.5758C54.4198 59.4129 54.2109 60.1192 54.0174 60.6996L53.4081 62.634H52.5235L51.9876 60.7152C51.8244 60.134 51.6533 59.4283 51.5347 58.781H51.5192C51.4894 59.4504 51.4673 60.2148 51.4301 60.8323L51.3409 62.7151H50.2925L50.6124 57.7588H52.1215L52.6128 59.413C52.7689 59.9866 52.9247 60.6047 53.0359 61.1853H53.0584C53.1996 60.6118 53.371 59.9574 53.5343 59.4063L54.07 57.7588H55.5495L55.8249 62.7151H54.7165L54.6428 60.8177Z" fill="#A6D3DF"/>
<path d="M57.8288 57.7588V60.6118C57.8288 61.4651 58.1558 61.8987 58.7362 61.8987C59.3308 61.8987 59.6584 61.487 59.6584 60.6118V57.7588H60.7882V60.5381C60.7882 62.0682 60.0076 62.7959 58.6987 62.7959C57.4346 62.7959 56.6904 62.1046 56.6904 60.5237V57.7588H57.8288Z" fill="#A6D3DF"/>
<path d="M61.8096 61.5582C62.1151 61.7124 62.5835 61.8665 63.0669 61.8665C63.5869 61.8665 63.8627 61.6538 63.8627 61.3304C63.8627 61.021 63.6242 60.8448 63.0218 60.6312C62.1895 60.3449 61.6466 59.8887 61.6466 59.1682C61.6466 58.3227 62.3602 57.6753 63.5428 57.6753C64.1078 57.6753 64.5245 57.793 64.8216 57.9253L64.5688 58.8302C64.3683 58.7345 64.0112 58.5947 63.5202 58.5947C63.0295 58.5947 62.7915 58.8148 62.7915 59.0724C62.7915 59.3884 63.0739 59.5281 63.7208 59.7714C64.6054 60.0944 65.0219 60.5507 65.0219 61.2488C65.0219 62.0801 64.3753 62.7857 62.9997 62.7857C62.427 62.7857 61.862 62.6393 61.5796 62.4846L61.8096 61.5582Z" fill="#A6D3DF"/>
</g>
<defs>
<clipPath id="clip0_28_14681">
<rect width="68.6165" height="68.6165" fill="white" transform="translate(0.631836 0.191895)"/>
</clipPath>
</defs>
</svg>
