<svg width="81" height="89" viewBox="0 0 81 89" fill="none" xmlns="http://www.w3.org/2000/svg">
<path d="M9.92287 16.6264C9.79482 16.9252 9.75213 30.542 9.79482 46.848L9.92287 76.5146H11.6303H13.3377L13.4658 48.2139L13.5512 19.9559H40.0164H66.4816L66.567 48.2139L66.695 76.5146H68.4025H70.1099V46.4211V16.3276L40.1018 16.1995C16.3258 16.1142 10.0509 16.1995 9.92287 16.6264Z" fill="white"/>
<path d="M23.7954 40.6154V56.2384H27.5518H31.3508L35.4486 52.1833C37.7537 49.9636 39.5892 48.0854 39.5892 48C39.5892 47.9147 38.522 47.7866 37.2415 47.7439C34.9364 47.7012 34.8937 47.7012 32.3326 50.2624C30.241 52.354 29.4726 52.8662 28.5762 52.7382L27.4237 52.6101L27.3383 45.3962C27.2957 39.1641 27.1676 37.9262 26.3992 36.1334C25.887 35.0235 25.5028 33.9991 25.5028 33.871C25.5028 33.743 26.57 34.1271 27.8506 34.7247C29.7287 35.5358 30.9239 35.7492 33.6558 35.7492C37.711 35.7492 39.3331 36.3895 41.4674 38.7799C43.1321 40.5727 44.8822 43.8168 45.3091 45.7804C45.5652 46.9756 45.0956 47.5305 36.3877 56.2384C31.3508 61.2753 27.2103 65.5439 27.2103 65.7147C27.2103 65.9281 33.7412 66.0562 41.7235 66.0562H56.2367V61.4888V56.9214L53.5474 59.5679L50.8582 62.2144H48.3398H45.7786L51.029 56.9641L56.2367 51.7564V48.7257C56.2367 39.8897 50.6875 30.6269 43.0894 26.8705L39.8453 25.2912L31.8204 25.1631L23.7954 24.9924V40.6154ZM39.1623 29.1756C46.1628 31.2672 51.7973 38.7372 52.651 47.061L52.9498 49.9209L46.8031 56.0677L40.6563 62.2144H38.0952H35.534L42.4918 55.2566L49.4069 48.3415L48.9374 45.7804C47.9983 40.6154 44.5834 35.7065 40.3575 33.4015C38.2659 32.249 37.6683 32.1209 32.6741 31.9928L27.2103 31.8221V30.4135C27.2103 29.6878 27.3383 28.9195 27.5091 28.7914C28.064 28.1938 36.8573 28.4926 39.1623 29.1756Z" fill="white"/>
<path d="M20.3809 69.4713V71.1787H40.0163H59.6518V69.4713V67.7638H40.0163H20.3809V69.4713Z" fill="white"/>
<path d="M16.5386 74.8072V76.728H40.0158H63.493V74.8072V72.8863H40.0158H16.5386V74.8072Z" fill="white"/>
</svg>
