<svg width="30" height="30" viewBox="0 0 30 30" fill="none" xmlns="http://www.w3.org/2000/svg">
<path d="M27.5 14.5371C27.5 9.64847 27.5 7.20416 26.0355 5.68545C24.5711 4.16675 22.214 4.16675 17.5 4.16675H12.5C7.786 4.16675 5.42887 4.16675 3.9645 5.68545C2.5 7.20416 2.5 9.64847 2.5 14.5371V17.1297C2.5 22.0183 2.5 24.4627 3.9645 25.9813C5.42887 27.5001 7.786 27.5001 12.5 27.5001H17.5C22.214 27.5001 24.5711 27.5001 26.0355 25.9813C27.5 24.4627 27.5 22.0183 27.5 17.1297V14.5371Z" stroke="#256A73" stroke-width="1.875"/>
<path d="M21.25 5V3.125" stroke="#256A73" stroke-width="1.875" stroke-linecap="round"/>
<path d="M8.75 5V3.125" stroke="#256A73" stroke-width="1.875" stroke-linecap="round"/>
<path d="M26.875 11.25H3.125" stroke="#256A73" stroke-width="1.875" stroke-linecap="round"/>
<path d="M7.5 21.25C7.5 21.9404 8.05963 22.5 8.75 22.5C9.44037 22.5 10 21.9404 10 21.25C10 20.5596 9.44037 20 8.75 20C8.05963 20 7.5 20.5596 7.5 21.25Z" fill="#256A73"/>
<path d="M7.5 16.25C7.5 16.9404 8.05963 17.5 8.75 17.5C9.44037 17.5 10 16.9404 10 16.25C10 15.5596 9.44037 15 8.75 15C8.05963 15 7.5 15.5596 7.5 16.25Z" fill="#256A73"/>
<path d="M13.75 21.25C13.75 21.9404 14.3096 22.5 15 22.5C15.6904 22.5 16.25 21.9404 16.25 21.25C16.25 20.5596 15.6904 20 15 20C14.3096 20 13.75 20.5596 13.75 21.25Z" fill="#256A73"/>
<path d="M13.75 16.25C13.75 16.9404 14.3096 17.5 15 17.5C15.6904 17.5 16.25 16.9404 16.25 16.25C16.25 15.5596 15.6904 15 15 15C14.3096 15 13.75 15.5596 13.75 16.25Z" fill="#256A73"/>
<path d="M20 21.25C20 21.9404 20.5596 22.5 21.25 22.5C21.9403 22.5 22.5 21.9404 22.5 21.25C22.5 20.5596 21.9403 20 21.25 20C20.5596 20 20 20.5596 20 21.25Z" fill="#256A73"/>
<path d="M20 16.25C20 16.9404 20.5596 17.5 21.25 17.5C21.9403 17.5 22.5 16.9404 22.5 16.25C22.5 15.5596 21.9403 15 21.25 15C20.5596 15 20 15.5596 20 16.25Z" fill="#256A73"/>
</svg>
