<svg width="78" height="75" viewBox="0 0 78 75" fill="none" xmlns="http://www.w3.org/2000/svg">
<path d="M9.86211 10.9859C9.73902 11.2731 9.69799 24.3616 9.73902 40.0349L9.86211 68.5505H11.5033H13.1445L13.2676 41.3479L13.3496 14.1862H38.788H64.2264L64.3085 41.3479L64.4316 68.5505H66.0728H67.714V39.6246V10.6987L38.8701 10.5756C16.0166 10.4935 9.9852 10.5756 9.86211 10.9859Z" fill="#00363F"/>
<path d="M23.1963 34.0445V49.0613H26.8069H30.4585L34.3974 45.1635C36.613 43.03 38.3773 41.2247 38.3773 41.1426C38.3773 41.0606 37.3515 40.9375 36.1206 40.8964C33.905 40.8554 33.864 40.8554 31.4022 43.3172C29.3918 45.3276 28.6532 45.82 27.7916 45.6969L26.6838 45.5738L26.6018 38.6398C26.5607 32.6495 26.4376 31.4596 25.6991 29.7364C25.2067 28.6696 24.8375 27.6849 24.8375 27.5618C24.8375 27.4387 25.8632 27.808 27.0941 28.3824C28.8994 29.162 30.0482 29.3671 32.6741 29.3671C36.572 29.3671 38.1311 29.9825 40.1826 32.2802C41.7827 34.0035 43.4649 37.1217 43.8752 39.0091C44.1214 40.1579 43.6701 40.6913 35.3 49.0613C30.4585 53.9028 26.4787 58.0058 26.4787 58.1699C26.4787 58.3751 32.7562 58.4982 40.4288 58.4982H54.3788V54.108V49.7178L51.794 52.2617L49.2091 54.8055H46.7884H44.3266L49.3732 49.7588L54.3788 44.7532V41.8401C54.3788 33.347 49.045 24.4435 41.7417 20.8329L38.6234 19.3148L30.9099 19.1917L23.1963 19.0276V34.0445ZM37.967 23.0485C44.6958 25.059 50.1118 32.2392 50.9323 40.24L51.2196 42.989L45.3113 48.8972L39.403 54.8055H36.9412H34.4794L41.1673 48.1177L47.8141 41.4709L47.3628 39.0091C46.4601 34.0445 43.1777 29.3261 39.1158 27.1105C37.1053 26.0027 36.5309 25.8796 31.7305 25.7565L26.4787 25.5924V24.2384C26.4787 23.5409 26.6018 22.8024 26.7659 22.6793C27.2993 22.1049 35.7514 22.3921 37.967 23.0485Z" fill="#00363F"/>
<path d="M19.915 61.7806V63.4218H38.7887H57.6623V61.7806V60.1394H38.7887H19.915V61.7806Z" fill="#00363F"/>
<path d="M16.2217 66.9093V68.7556H38.788H61.3543V66.9093V65.0629H38.788H16.2217V66.9093Z" fill="#00363F"/>
</svg>
