<svg width="33" height="35" viewBox="0 0 33 35" fill="none" xmlns="http://www.w3.org/2000/svg">
<path fill-rule="evenodd" clip-rule="evenodd" d="M10.5205 4.44346C10.5205 3.86079 10.0736 3.38843 9.52245 3.38843C8.97128 3.38843 8.52445 3.86079 8.52445 4.44346V5.60693C8.17856 5.63482 7.851 5.66986 7.54106 5.7139C5.98095 5.93564 4.71821 6.40284 3.72238 7.45556C2.72656 8.5083 2.28461 9.84318 2.07487 11.4925C1.87105 13.095 1.87107 15.1426 1.87109 17.7279V20.7C1.87107 23.2852 1.87105 25.3328 2.07487 26.9353C2.28461 28.5846 2.72656 29.9195 3.72238 30.9723C4.71821 32.0249 5.98095 32.4921 7.54106 32.714C9.05696 32.9293 10.994 32.9293 13.4394 32.9293H18.9123C21.3577 32.9293 23.2946 32.9293 24.8105 32.714C26.3706 32.4921 27.6334 32.0249 28.6293 30.9723C29.625 29.9195 30.0669 28.5846 30.2768 26.9353C30.4805 25.3328 30.4805 23.2851 30.4805 20.7V20.7V17.7277V17.7276C30.4805 15.1426 30.4805 13.095 30.2768 11.4925C30.0669 9.84318 29.625 8.5083 28.6293 7.45556C27.6334 6.40284 26.3706 5.93564 24.8105 5.7139C24.5006 5.66986 24.173 5.63482 23.8272 5.60693V4.44346C23.8272 3.86079 23.3803 3.38843 22.8292 3.38843C22.278 3.38843 21.8312 3.86079 21.8312 4.44346V5.51639C20.9503 5.49848 19.9797 5.49848 18.9122 5.49849H13.4392C12.3719 5.49848 11.4014 5.49848 10.5205 5.51639V4.44346ZM5.13377 8.9476C5.69692 8.35227 6.46824 7.99543 7.80702 7.80516C9.1745 7.61079 10.9771 7.60856 13.5145 7.60856H18.8371C21.3745 7.60856 23.1771 7.61079 24.5447 7.80516C25.8833 7.99543 26.6547 8.35227 27.2178 8.9476C27.781 9.54294 28.1186 10.3583 28.2985 11.7736C28.329 12.0133 28.3545 12.2656 28.3758 12.532H3.97579C3.99711 12.2656 4.02259 12.0133 4.05308 11.7736C4.23306 10.3583 4.57061 9.54294 5.13377 8.9476ZM3.88452 14.6421C3.86753 15.5603 3.8671 16.6059 3.8671 17.8072V20.6206C3.8671 23.3029 3.86922 25.2086 4.05308 26.6543C4.23306 28.0694 4.57061 28.8849 5.13377 29.4802C5.69692 30.0755 6.46824 30.4324 7.80702 30.6226C9.1745 30.817 10.9771 30.8193 13.5145 30.8193H18.8371C21.3745 30.8193 23.1771 30.817 24.5447 30.6226C25.8833 30.4324 26.6547 30.0755 27.2178 29.4802C27.781 28.8849 28.1186 28.0694 28.2985 26.6543C28.4824 25.2086 28.4845 23.3029 28.4845 20.6206V17.8072C28.4845 16.6059 28.4841 15.5603 28.4671 14.6421H3.88452ZM10.853 19.2142C10.853 19.9911 10.2573 20.6209 9.52236 20.6209C8.78746 20.6209 8.19169 19.9911 8.19169 19.2142C8.19169 18.4373 8.78746 17.8075 9.52236 17.8075C10.2573 17.8075 10.853 18.4373 10.853 19.2142ZM16.1757 20.6209C16.9106 20.6209 17.5064 19.9911 17.5064 19.2142C17.5064 18.4373 16.9106 17.8075 16.1757 17.8075C15.4408 17.8075 14.845 18.4373 14.845 19.2142C14.845 19.9911 15.4408 20.6209 16.1757 20.6209ZM22.8291 20.6209C23.564 20.6209 24.1597 19.9911 24.1597 19.2142C24.1597 18.4373 23.564 17.8075 22.8291 17.8075C22.0941 17.8075 21.4984 18.4373 21.4984 19.2142C21.4984 19.9911 22.0941 20.6209 22.8291 20.6209ZM22.8291 26.248C23.564 26.248 24.1597 25.6182 24.1597 24.8413C24.1597 24.0644 23.564 23.4346 22.8291 23.4346C22.0941 23.4346 21.4984 24.0644 21.4984 24.8413C21.4984 25.6182 22.0941 26.248 22.8291 26.248ZM17.5064 24.8413C17.5064 25.6182 16.9106 26.248 16.1757 26.248C15.4408 26.248 14.845 25.6182 14.845 24.8413C14.845 24.0644 15.4408 23.4346 16.1757 23.4346C16.9106 23.4346 17.5064 24.0644 17.5064 24.8413ZM9.52236 26.248C10.2573 26.248 10.853 25.6182 10.853 24.8413C10.853 24.0644 10.2573 23.4346 9.52236 23.4346C8.78746 23.4346 8.19169 24.0644 8.19169 24.8413C8.19169 25.6182 8.78746 26.248 9.52236 26.248Z" fill="url(#paint0_linear_20_8008)"/>
<defs>
<linearGradient id="paint0_linear_20_8008" x1="16.1758" y1="3.38843" x2="16.1758" y2="32.9293" gradientUnits="userSpaceOnUse">
<stop stop-color="#35A2BF"/>
<stop offset="1" stop-color="#2DA589" stop-opacity="0.55"/>
</linearGradient>
</defs>
</svg>
