<svg xmlns="http://www.w3.org/2000/svg" width="46" height="51" viewBox="0 0 46 51" fill="none">
  <path d="M5.67517 9.5091C5.60193 9.67999 5.57752 17.4678 5.60193 26.7937L5.67517 43.7609H6.6517H7.62823L7.70147 27.5749L7.75029 11.4133H22.8865H38.0227L38.0715 27.5749L38.1448 43.7609H39.1213H40.0978V26.5495V9.3382L22.9353 9.26497C9.33715 9.21614 5.74841 9.26497 5.67517 9.5091Z" fill="#00363F"/>
  <path d="M13.6094 23.2293V32.1645H15.7577H17.9305L20.2742 29.8452C21.5925 28.5758 22.6423 27.5016 22.6423 27.4527C22.6423 27.4039 22.0319 27.3307 21.2995 27.3063C19.9812 27.2819 19.9568 27.2819 18.492 28.7466C17.2958 29.9429 16.8563 30.2359 16.3437 30.1626L15.6845 30.0894L15.6357 25.9635C15.6113 22.3992 15.538 21.6912 15.0986 20.6659C14.8056 20.0311 14.5859 19.4452 14.5859 19.372C14.5859 19.2987 15.1962 19.5184 15.9286 19.8602C17.0028 20.3241 17.6864 20.4461 19.2488 20.4461C21.5681 20.4461 22.4958 20.8123 23.7165 22.1795C24.6686 23.2048 25.6695 25.0602 25.9136 26.1833C26.0601 26.8668 25.7916 27.1842 20.8113 32.1645C17.9305 35.0453 15.5624 37.4866 15.5624 37.5842C15.5624 37.7063 19.2977 37.7795 23.8629 37.7795H32.1634V35.1673V32.5551L30.6254 34.0687L29.0874 35.5824H27.647H26.1822L29.185 32.5795L32.1634 29.6011V27.8678C32.1634 22.8142 28.9897 17.5166 24.6442 15.3682L22.7887 14.4649L18.1991 14.3917L13.6094 14.294V23.2293ZM22.3981 16.6865C26.4019 17.8828 29.6245 22.1551 30.1127 26.9157L30.2836 28.5513L26.7681 32.0668L23.2526 35.5824H21.7878H20.323L24.3024 31.603L28.2573 27.6481L27.9888 26.1833C27.4517 23.2293 25.4986 20.4217 23.0817 19.1034C21.8855 18.4443 21.5437 18.371 18.6873 18.2978L15.5624 18.2001V17.3945C15.5624 16.9795 15.6357 16.54 15.7333 16.4668C16.0507 16.125 21.0798 16.2959 22.3981 16.6865Z" fill="#00363F"/>
  <path d="M11.6562 39.7327V40.7092H22.8863H34.1164V39.7327V38.7562H22.8863H11.6562V39.7327Z" fill="#00363F"/>
  <path d="M9.45898 42.7843V43.8829H22.8863H36.3135V42.7843V41.6857H22.8863H9.45898V42.7843Z" fill="#00363F"/>
</svg>