<svg xmlns="http://www.w3.org/2000/svg" width="51" height="51" viewBox="0 0 51 51" fill="none">
  <g clip-path="url(#clip0_28_14824)">
    <path fill-rule="evenodd" clip-rule="evenodd" d="M25.5565 4.52441C19.9864 4.52441 14.7554 5.69534 10.1016 8.18362C12.8278 9.54179 16.4994 10.6504 19.6266 11.3083C19.7483 11.1886 19.8553 11.075 19.9559 10.9471C19.8943 10.6618 19.7618 10.212 19.7208 9.97198C20.3631 9.53225 22.3819 8.71723 22.3819 8.71723L22.1185 6.25928L23.1779 5.88044L24.177 8.31718C31.0806 7.72837 31.7994 10.7542 32.2023 11.6411C35.6247 11.1362 39.1008 10.0485 41.723 8.58976C37.9792 6.38959 32.2363 4.52441 25.5565 4.52441Z" fill="#00363F"/>
    <path fill-rule="evenodd" clip-rule="evenodd" d="M3.65723 13.3715C5.47146 13.9486 9.13107 14.9978 15.3384 15.9395C15.8661 15.1372 18.3594 12.707 18.962 12.0025C14.0957 11.0712 10.3406 9.4411 8.9824 8.82581C7.19506 9.88855 5.16132 11.505 3.65723 13.3715ZM32.5659 16.6512C39.8448 16.2554 45.7683 14.7673 48.0194 13.9816C46.6527 12.1093 44.4838 10.2908 42.7156 9.19186C41.4514 9.88368 38.0284 11.4798 32.454 12.3285C32.9864 13.6749 32.5659 16.6512 32.5659 16.6512Z" fill="#00363F"/>
    <path fill-rule="evenodd" clip-rule="evenodd" d="M0.433594 21.5147C2.35976 21.5147 19.1516 21.5147 19.1516 21.5147C20.4907 19.1956 23.52 17.7071 23.52 17.7071C23.52 17.7071 21.5096 17.5874 20.3272 17.5315C19.4186 18.2608 17.4989 20.1311 15.5119 16.9098C11.2908 16.391 6.20215 15.2307 3.0254 14.1998C1.09781 16.8729 0.502907 19.4675 0.433594 21.5147ZM50.8275 21.5147C50.8 19.4218 50.0649 17.0879 48.7315 15.0082C47.3621 15.3958 41.7331 17.1388 32.3624 17.6509C32.1436 18.9499 31.682 20.3925 31.5841 21.5148C32.4219 21.5113 49.3412 21.5147 50.8275 21.5147Z" fill="#00363F"/>
    <path fill-rule="evenodd" clip-rule="evenodd" d="M0.44043 22.5009C1.23495 22.4914 18.565 22.5052 18.565 22.5052C18.1634 23.2812 17.825 24.9978 17.9056 25.9038C8.09811 26.7639 3.79762 28.3317 2.42312 28.7521C1.41478 27.1012 0.563631 25.0862 0.44043 22.5009ZM31.4861 22.5052C32.1801 22.503 50.2374 22.503 50.8215 22.5052C50.6921 25.3575 49.5463 27.6342 48.6158 29.0312C47.4432 28.6949 41.5558 26.7872 32.4768 25.9647C32.047 25.3989 31.3389 24.0524 31.4861 22.5052Z" fill="#00363F"/>
    <path fill-rule="evenodd" clip-rule="evenodd" d="M2.99512 29.6178C3.98652 29.2438 9.49507 27.4465 17.994 26.8248C18.0549 27.7505 18.3587 28.8161 18.3587 28.8161C18.3587 28.8161 32.2295 28.8084 32.6875 28.814C33.4029 28.0288 33.0282 26.9559 33.0282 26.9559C39.8806 27.4934 46.7645 29.4707 47.9966 29.9057C46.6376 31.7248 44.4885 33.6249 42.2048 34.9655C40.3028 34.2337 35.3189 31.9857 28.6661 31.4482C29.3885 30.4271 32.0432 30.1892 32.6911 30.0936L32.6946 29.1262L18.3551 29.1226L18.3587 30.0978C18.3587 30.0978 21.4391 30.1346 22.1826 31.378C13.9081 32.0699 9.61685 34.7588 9.10771 35.0907C6.74749 33.6975 4.49434 31.7715 2.99512 29.6178Z" fill="#00363F"/>
    <path fill-rule="evenodd" clip-rule="evenodd" d="M41.0409 35.6254C38.8926 36.7978 36.0912 37.8249 33.4861 38.4066V34.336C32.5647 34.3466 32.273 34.3675 31.6994 34.3657C30.4332 34.3607 29.6664 34.2425 29.0376 33.7928C28.3605 33.3088 28.3026 32.5773 28.3818 32.2324C35.5999 32.8913 41.0409 35.6254 41.0409 35.6254Z" fill="#00363F"/>
    <path fill-rule="evenodd" clip-rule="evenodd" d="M17.2862 38.3475C14.5748 37.7131 12.0489 36.7282 10.042 35.6223C12.2089 34.1455 16.6085 32.492 22.5547 32.1168C22.6212 32.342 22.6828 33.3467 21.9152 33.8451C20.8771 34.518 17.2862 34.3041 17.2862 34.3041V38.3475Z" fill="#00363F"/>
    <path d="M19.0312 35.4812H21.6956V36.2892H20.0205V37.2856H21.5855V38.087H20.0205V39.8397H19.0312V35.4812Z" fill="#00363F"/>
    <path d="M23.4271 35.4812V39.8397H22.4375V35.4812H23.4271Z" fill="#00363F"/>
    <path d="M24.2812 35.5392C24.643 35.4812 25.1154 35.4486 25.6132 35.4486C26.4411 35.4486 26.9778 35.5972 27.3984 35.9145C27.8509 36.2506 28.1355 36.7874 28.1355 37.5567C28.1355 38.3912 27.8318 38.9667 27.4111 39.3228C26.952 39.7041 26.2534 39.885 25.4001 39.885C24.8888 39.885 24.5269 39.8528 24.2812 39.8205V35.5392ZM25.2705 39.0962C25.3549 39.1153 25.4904 39.1153 25.6132 39.1153C26.5059 39.122 27.0879 38.6307 27.0879 37.5894C27.0943 36.684 26.5643 36.2052 25.7166 36.2052C25.497 36.2052 25.3547 36.2248 25.2705 36.2442V39.0962Z" fill="#00363F"/>
    <path d="M31.3745 37.9969H29.7704V39.0318H31.5619V39.8397H28.7812V35.4812H31.4714V36.2892H29.7704V37.195H31.3745V37.9969Z" fill="#00363F"/>
    <path d="M6.60164 46.1468C6.34316 46.2334 5.85391 46.3531 5.36455 46.3531C4.68826 46.3531 4.1986 46.1847 3.85762 45.8586C3.51673 45.543 3.3297 45.0643 3.33507 44.5262C3.34076 43.3083 4.23717 42.6122 5.45234 42.6122C5.93104 42.6122 6.29922 42.7041 6.48047 42.7912L6.3049 43.4548C6.10133 43.3678 5.84812 43.2969 5.44138 43.2969C4.74286 43.2969 4.21514 43.6884 4.21514 44.4826C4.21514 45.2387 4.69354 45.6847 5.38069 45.6847C5.57341 45.6847 5.72705 45.6628 5.79322 45.6303V44.8633H5.22136V44.216H6.60154L6.60164 46.1468Z" fill="#00363F"/>
    <path d="M9.46296 44.7654H8.09942V45.6355H9.6227V46.3153H7.25781V42.6499H9.54547V43.3294H8.09942V44.091H9.46296V44.7654Z" fill="#00363F"/>
    <path d="M10.1963 46.3154V42.65H11.1753L11.9454 43.993C12.1649 44.3793 12.3851 44.8364 12.5501 45.2492H12.5663C12.5114 44.7654 12.4949 44.2705 12.4949 43.721V42.6499H13.2649V46.3153H12.3851L11.5934 44.9014C11.3732 44.5098 11.1314 44.0368 10.9497 43.607L10.9334 43.6126C10.9553 44.0964 10.9664 44.6131 10.9664 45.2113V46.3153H10.1963V46.3154Z" fill="#00363F"/>
    <path d="M14.0194 45.4617C14.2446 45.5757 14.5913 45.6897 14.9485 45.6897C15.3336 45.6897 15.5369 45.5324 15.5369 45.2932C15.5369 45.0644 15.3613 44.9341 14.9158 44.7762C14.2997 44.5644 13.8983 44.227 13.8983 43.6941C13.8983 43.0689 14.4262 42.5901 15.3003 42.5901C15.7184 42.5901 16.0262 42.6772 16.2464 42.775L16.0595 43.4442C15.9108 43.3734 15.6469 43.27 15.284 43.27C14.9211 43.27 14.7451 43.4328 14.7451 43.6233C14.7451 43.857 14.954 43.9603 15.4327 44.1403C16.0871 44.3792 16.3947 44.7166 16.3947 45.2328C16.3947 45.8476 15.9164 46.3695 14.8988 46.3695C14.4757 46.3695 14.0575 46.2612 13.8486 46.1468L14.0194 45.4617Z" fill="#00363F"/>
    <path d="M18.9096 42.65V44.76C18.9096 45.391 19.1514 45.7117 19.5802 45.7117C20.0202 45.7117 20.2621 45.4072 20.2621 44.76V42.65H21.0985V44.7055C21.0985 45.837 20.5206 46.3752 19.553 46.3752C18.6179 46.3752 18.0684 45.8639 18.0684 44.6948V42.65H18.9096Z" fill="#00363F"/>
    <path d="M21.8262 46.3154V42.65H22.8049L23.5749 43.993C23.7949 44.3793 24.0151 44.8364 24.1801 45.2492H24.1963C24.1411 44.7654 24.1249 44.2705 24.1249 43.721V42.6499H24.8945V46.3153H24.015L23.2229 44.9014C23.0031 44.5098 22.7609 44.0368 22.5796 43.607L22.5633 43.6126C22.5852 44.0964 22.5958 44.6131 22.5958 45.2113V46.3153H21.8262V46.3154Z" fill="#00363F"/>
    <path d="M26.4866 45.3746L26.2223 46.3154H25.3535L26.4866 42.65H27.5863L28.7357 46.3154H27.8337L27.548 45.3746H26.4866ZM27.4269 44.7546L27.1962 43.9767C27.1299 43.7593 27.0636 43.4875 27.0091 43.2701H26.9979C26.943 43.4875 26.8882 43.765 26.8275 43.9767L26.6077 44.7546H27.4269Z" fill="#00363F"/>
    <path d="M30.3694 45.4617C30.5953 45.5757 30.9417 45.6897 31.2993 45.6897C31.6836 45.6897 31.8877 45.5324 31.8877 45.2932C31.8877 45.0644 31.7114 44.9341 31.266 44.7762C30.6502 44.5644 30.2487 44.227 30.2487 43.6941C30.2487 43.0689 30.7766 42.5901 31.6512 42.5901C32.069 42.5901 32.377 42.6772 32.5968 42.775L32.4097 43.4442C32.2615 43.3734 31.9974 43.27 31.6344 43.27C31.2714 43.27 31.0955 43.4328 31.0955 43.6233C31.0955 43.857 31.3045 43.9603 31.7827 44.1403C32.437 44.3792 32.745 44.7166 32.745 45.2328C32.745 45.8476 32.2667 46.3695 31.2495 46.3695C30.8259 46.3695 30.4082 46.2612 30.1992 46.1468L30.3694 45.4617Z" fill="#00363F"/>
    <path d="M34.1488 42.65V44.76C34.1488 45.391 34.3911 45.7117 34.8197 45.7117C35.2599 45.7117 35.5016 45.4072 35.5016 44.76V42.65H36.3376V44.7055C36.3376 45.837 35.7602 46.3752 34.7924 46.3752C33.8574 46.3752 33.3076 45.8639 33.3076 44.6948V42.65H34.1488Z" fill="#00363F"/>
    <path d="M40.1995 44.9122C40.1829 44.4718 40.1663 43.9389 40.1663 43.406H40.1499C40.0346 43.8733 39.8801 44.3957 39.737 44.8249L39.2864 46.2555H38.6323L38.236 44.8364C38.1153 44.4066 37.9887 43.8847 37.9011 43.406H37.8896C37.8676 43.901 37.8512 44.4664 37.8237 44.9231L37.7578 46.3154H36.9824L37.219 42.65H38.335L38.6983 43.8734C38.8137 44.2976 38.929 44.7547 39.0112 45.1841H39.0278C39.1323 44.76 39.259 44.276 39.3798 43.8684L39.7759 42.65H40.87L41.0737 46.3154H40.254L40.1995 44.9122Z" fill="#00363F"/>
    <path d="M42.5557 42.65V44.76C42.5557 45.391 42.7975 45.7117 43.2267 45.7117C43.6664 45.7117 43.9087 45.4072 43.9087 44.76V42.65H44.7442V44.7055C44.7442 45.837 44.1669 46.3752 43.199 46.3752C42.2642 46.3752 41.7139 45.8639 41.7139 44.6948V42.65H42.5557Z" fill="#00363F"/>
    <path d="M45.4992 45.4617C45.7251 45.5757 46.0715 45.6897 46.429 45.6897C46.8135 45.6897 47.0175 45.5324 47.0175 45.2932C47.0175 45.0644 46.8411 44.9341 46.3956 44.7762C45.7801 44.5644 45.3786 44.227 45.3786 43.6941C45.3786 43.0689 45.9063 42.5901 46.7809 42.5901C47.1987 42.5901 47.5068 42.6772 47.7266 42.775L47.5396 43.4442C47.3914 43.3734 47.1273 43.27 46.7642 43.27C46.4013 43.27 46.2253 43.4328 46.2253 43.6233C46.2253 43.857 46.4342 43.9603 46.9126 44.1403C47.5667 44.3792 47.8747 44.7166 47.8747 45.2328C47.8747 45.8476 47.3965 46.3695 46.3793 46.3695C45.9558 46.3695 45.538 46.2612 45.3291 46.1468L45.4992 45.4617Z" fill="#00363F"/>
  </g>
  <defs>
    <clipPath id="clip0_28_14824">
      <rect width="50.742" height="50.7452" fill="white" transform="translate(0.257812 0.0782471)"/>
    </clipPath>
  </defs>
</svg>