<svg width="35" height="35" viewBox="0 0 35 35" fill="none" xmlns="http://www.w3.org/2000/svg">
<path fill-rule="evenodd" clip-rule="evenodd" d="M17.6905 4.06323C10.9538 4.06323 5.49268 9.52438 5.49268 16.2611C5.49268 22.6078 10.2969 27.6381 16.0782 30.586L16.0782 30.586C17.0913 31.1025 18.2897 31.1025 19.3028 30.586L19.3028 30.586C25.084 27.6381 29.8883 22.6078 29.8883 16.2611C29.8883 9.52438 24.4272 4.06323 17.6905 4.06323ZM7.58373 16.2611C7.58373 10.6792 12.1087 6.15429 17.6905 6.15429C23.2723 6.15429 27.7973 10.6792 27.7973 16.2611C27.7973 21.465 23.8216 25.9346 18.3529 28.7231C17.9366 28.9354 17.4444 28.9354 17.028 28.7231C11.5594 25.9346 7.58373 21.465 7.58373 16.2611ZM14.5534 16.2611C14.5534 14.5288 15.9577 13.1245 17.69 13.1245C19.4223 13.1245 20.8266 14.5288 20.8266 16.2611C20.8266 17.9935 19.4223 19.3977 17.69 19.3977C15.9576 19.3977 14.5534 17.9935 14.5534 16.2611ZM17.69 11.0335C14.8028 11.0335 12.4624 13.374 12.4624 16.2611C12.4624 19.1483 14.8028 21.4887 17.69 21.4887C20.5772 21.4887 22.9176 19.1483 22.9176 16.2611C22.9176 13.374 20.5772 11.0335 17.69 11.0335Z" fill="url(#paint0_linear_20_8022)"/>
<defs>
<linearGradient id="paint0_linear_20_8022" x1="17.6905" y1="4.06323" x2="17.6905" y2="30.9734" gradientUnits="userSpaceOnUse">
<stop stop-color="#35A2BF"/>
<stop offset="1" stop-color="#2DA589" stop-opacity="0.55"/>
</linearGradient>
</defs>
</svg>
