<svg width="84" height="81" viewBox="0 0 84 81" fill="none" xmlns="http://www.w3.org/2000/svg">
<rect x="0.5" y="0.5" width="83" height="80" rx="9.5" fill="#EDF8F9"/>
<rect x="0.5" y="0.5" width="83" height="80" rx="9.5" stroke="#CBEDF0"/>
<path d="M69.0938 36.7111H61.1026C60.1493 28.1356 53.052 21.4068 44.3237 21.0028C43.9264 19.8409 42.8369 19 41.5409 19H41.5216C40.2258 19 39.1424 19.8405 38.7474 21.0024C30.015 21.4027 22.9136 28.1328 21.9599 36.7111H13.9688C12.8806 36.7111 12 37.5927 12 38.6798C12 39.767 12.8806 40.6486 13.9688 40.6486H16.4882L17.1103 42.5163C17.9159 44.9322 20.1672 46.5548 22.7128 46.5548H28.7869L32.4929 51.4074C32.7506 51.7448 33.1101 51.9899 33.5176 52.1063C33.7657 52.1764 39.5219 53.7943 48.0738 54.2731L52.6116 58.5063L52.2861 58.6931C51.3441 59.2344 51.0173 60.4379 51.5595 61.3809C51.9229 62.0144 52.5862 62.3692 53.2687 62.3692C53.6013 62.3692 53.9377 62.2855 54.2474 62.1077L66.7405 54.9336C67.6826 54.3924 68.0094 53.1889 67.4672 52.2459C66.925 51.3038 65.7234 50.976 64.7794 51.5192L64.4737 51.6948C63.6143 49.86 62.3898 47.9934 61.2841 46.481C63.4332 46.1386 65.2468 44.6317 65.9522 42.5157L66.5743 40.649H69.0938C70.1819 40.649 71.0625 39.7674 71.0625 38.6802C71.0625 37.5931 70.1819 36.7111 69.0938 36.7111ZM39.5625 24.8986H43.5C50.428 24.8986 56.1636 30.0437 57.1241 36.7111H25.9386C26.8991 30.0437 32.6345 24.8986 39.5625 24.8986ZM56.185 56.4543L50.2367 50.9048C49.8945 50.5866 49.4523 50.3992 48.9851 50.377C42.0945 50.0511 36.9265 48.9024 35.2116 48.4783L33.7423 46.5546H56.3516C57.6945 48.1822 59.9538 51.1902 61.0441 53.6638L56.185 56.4543ZM62.2185 41.2705C61.9494 42.0761 61.1975 42.6173 60.3497 42.6173H22.7128C21.8648 42.6173 21.1131 42.0761 20.844 41.2715L20.6365 40.6486H62.4258L62.2185 41.2705Z" fill="#38989F"/>
</svg>
