<svg width="84" height="81" viewBox="0 0 84 81" fill="none" xmlns="http://www.w3.org/2000/svg">
<rect x="0.5" y="0.5" width="83" height="80" rx="9.5" fill="#EDF8F9"/>
<rect x="0.5" y="0.5" width="83" height="80" rx="9.5" stroke="#CBEDF0"/>
<path d="M53.0938 43.8125H29.9062V62.0312H53.0938V43.8125Z" fill="#CCE2E3"/>
<path d="M60.0843 34.1904L43.1562 28.7607V27.25C43.1562 26.3346 42.4154 25.5938 41.5 25.5938C40.1301 25.5938 39.0156 24.4793 39.0156 23.1094C39.0156 21.7395 40.1301 20.625 41.5 20.625C42.8699 20.625 43.9844 21.7395 43.9844 23.1094C43.9844 24.0248 44.7252 24.7656 45.6406 24.7656C46.556 24.7656 47.2969 24.0248 47.2969 23.1094C47.2969 19.9133 44.6961 17.3125 41.5 17.3125C38.3039 17.3125 35.7031 19.9133 35.7031 23.1094C35.7031 25.7312 37.4516 27.9504 39.8438 28.6653V28.7608L22.9174 34.1905C20.1629 35.0703 18.3125 37.6065 18.3125 40.5002C18.3125 44.154 21.2836 47.1252 24.9375 47.1252H28.25V62.0314C28.25 62.9468 28.9908 63.6877 29.9062 63.6877H53.0938C54.0092 63.6877 54.75 62.9468 54.75 62.0314V47.1252H58.0625C61.7164 47.1252 64.6875 44.154 64.6875 40.5002C64.6875 37.6065 62.8371 35.0703 60.0843 34.1904ZM51.4375 60.375H49.7812V58.7188C49.7812 57.8033 49.0404 57.0625 48.125 57.0625C47.2096 57.0625 46.4688 57.8033 46.4688 58.7188V60.375H43.1562V58.7188C43.1562 57.8033 42.4154 57.0625 41.5 57.0625C40.5846 57.0625 39.8438 57.8033 39.8438 58.7188V60.375H36.5312V58.7188C36.5312 57.8033 35.7904 57.0625 34.875 57.0625C33.9596 57.0625 33.2188 57.8033 33.2188 58.7188V60.375H31.5625V42.1563C31.5625 41.2423 32.3048 40.5 33.2188 40.5H49.7812C50.6952 40.5 51.4375 41.2423 51.4375 42.1563V60.375ZM58.0625 43.8125H54.75V42.1563C54.75 39.4163 52.5212 37.1875 49.7812 37.1875H33.2188C30.4788 37.1875 28.25 39.4163 28.25 42.1563V43.8125H24.9375C23.1115 43.8125 21.625 42.326 21.625 40.5C21.625 39.0524 22.5502 37.7859 23.9282 37.3443L41.5 31.7081L59.0735 37.3443C60.45 37.7859 61.375 39.0523 61.375 40.5C61.375 42.326 59.8885 43.8125 58.0625 43.8125Z" fill="#38989F"/>
</svg>
