<svg width="84" height="81" viewBox="0 0 84 81" fill="none" xmlns="http://www.w3.org/2000/svg">
<rect x="0.5" y="0.5" width="83" height="80" rx="9.5" fill="#EDF8F9"/>
<rect x="0.5" y="0.5" width="83" height="80" rx="9.5" stroke="#CBEDF0"/>
<path d="M58.875 15.375H25.125C21.403 15.375 18.375 18.4022 18.375 22.125V55.875C18.375 59.5978 21.403 62.625 25.125 62.625H58.875C62.597 62.625 65.625 59.5978 65.625 55.875V22.125C65.625 18.4022 62.597 15.375 58.875 15.375ZM62.25 55.875C62.25 57.7355 60.7363 59.25 58.875 59.25H25.125C23.2637 59.25 21.75 57.7355 21.75 55.875V22.125C21.75 20.2645 23.2637 18.75 25.125 18.75H58.875C60.7363 18.75 62.25 20.2645 62.25 22.125V55.875ZM55.3331 35.8839L54.5805 29.9263C54.2607 27.4033 52.1012 25.5 49.5575 25.5H34.4425C31.899 25.5 29.7393 27.4033 29.4195 29.928L28.6671 35.8839C26.6213 36.5341 25.125 38.4289 25.125 40.6875V45.75C25.125 47.6105 26.6387 49.125 28.5 49.125V50.8125C28.5 51.7452 29.2557 52.5 30.1875 52.5H31.875C32.8068 52.5 33.5625 51.7452 33.5625 50.8125V49.125H50.4375V50.8125C50.4375 51.7452 51.1932 52.5 52.125 52.5H53.8125C54.7443 52.5 55.5 51.7452 55.5 50.8125V49.125C57.3613 49.125 58.875 47.6105 58.875 45.75V40.6875C58.875 38.4291 57.3789 36.5342 55.3331 35.8839ZM34.4425 28.875H49.5575C50.4053 28.875 51.1255 29.5095 51.2318 30.3499L51.8984 35.625H32.1016L32.7682 30.3516C32.8745 29.5095 33.5946 28.875 34.4425 28.875ZM28.5 45.75V40.6875C28.5 39.7563 29.2572 39 30.1875 39H53.8125C54.7428 39 55.5 39.7563 55.5 40.6875L55.5025 45.75H28.5ZM33.5625 42.375C33.5625 43.3068 32.807 44.0625 31.875 44.0625C30.943 44.0625 30.1875 43.3068 30.1875 42.375C30.1875 41.4432 30.9432 40.6875 31.875 40.6875C32.8068 40.6875 33.5625 41.443 33.5625 42.375ZM53.8125 42.375C53.8125 43.3068 53.057 44.0625 52.125 44.0625C51.193 44.0625 50.4375 43.3068 50.4375 42.375C50.4375 41.4432 51.1932 40.6875 52.125 40.6875C53.0568 40.6875 53.8125 41.443 53.8125 42.375Z" fill="#38989F"/>
</svg>
