<svg width="84" height="81" viewBox="0 0 84 81" fill="none" xmlns="http://www.w3.org/2000/svg">
<rect x="0.5" y="0.5" width="83" height="80" rx="9.5" fill="#EDF8F9"/>
<rect x="0.5" y="0.5" width="83" height="80" rx="9.5" stroke="#CBEDF0"/>
<path d="M67.3359 29.9271L66.1218 28.713L66.5725 28.2623C68.8204 26.0151 68.8204 22.3569 66.5725 20.1079L62.0974 15.6344C59.9191 13.4571 56.1222 13.4533 53.9439 15.6344L53.4935 16.0848L53.2072 15.7984C51.0214 13.6136 47.2094 13.6117 45.0217 15.7984L42.9264 17.8947C41.8335 18.9876 41.2306 20.4413 41.2306 21.9874C41.2306 23.5336 41.8335 24.9873 42.9264 26.0802L46.3035 29.4572L30.4979 45.2628L26.9738 41.7387C24.7164 39.4814 21.0457 39.4814 18.7883 41.7387L16.693 43.834C14.4357 46.0914 14.4357 49.7631 16.693 52.0205L17.9071 53.2345L17.4563 53.6853C15.2084 55.9324 15.2084 59.5906 17.4563 61.8397L21.9315 66.3131C23.0208 67.4024 24.4679 68.0024 26.0092 68.0024C27.5488 68.0024 28.9959 67.4024 30.085 66.3131L30.5353 65.8628L30.8217 66.1491C31.9146 67.242 33.3673 67.844 34.9144 67.844C36.4596 67.844 37.9143 67.242 39.0072 66.1491L41.1024 64.0529C42.1953 62.96 42.7983 61.5063 42.7983 59.9601C42.7983 58.414 42.1953 56.9603 41.1024 55.8674L37.7254 52.4903L53.531 36.6847L57.0551 40.2088C58.1839 41.3376 59.6648 41.9018 61.1478 41.9018C62.6309 41.9018 64.1118 41.3374 65.2406 40.2088L67.3359 38.1135C69.5932 35.8562 69.5932 32.1844 67.3359 29.9271ZM56.6725 18.363C57.3922 17.6394 58.6491 17.6413 59.369 18.363L63.8442 22.8364C64.5867 23.5799 64.5867 24.7905 63.8442 25.5337L63.3934 25.9845L56.2221 18.8131L56.6725 18.363ZM27.3564 63.5848C26.6348 64.3074 25.3779 64.3037 24.6599 63.5848L20.1847 59.1113C19.4422 58.3679 19.4422 57.1573 20.1847 56.414L20.6355 55.9633L27.8068 63.1346L27.3564 63.5848ZM38.9392 59.9603C38.9392 60.4757 38.7395 60.96 38.3739 61.3235L36.2786 63.4198C35.5512 64.1519 34.2775 64.149 33.55 63.4208L19.4214 49.2921C18.6696 48.5394 18.6696 47.3155 19.4214 46.5626L21.5167 44.4673C21.8935 44.0914 22.3873 43.9029 22.8809 43.9029C23.3744 43.9029 23.8682 44.0914 24.245 44.4673L38.3737 58.5969C38.7393 58.9606 38.9392 59.4451 38.9392 59.9603ZM34.9968 49.762L33.2265 47.9916L49.0321 32.186L50.8024 33.9563L34.9968 49.762ZM64.6073 35.3852L62.512 37.4804C61.7583 38.2322 60.5373 38.2322 59.7835 37.4804L45.6548 23.3508C45.2892 22.9871 45.0894 22.5028 45.0894 21.9876C45.0894 21.4724 45.2892 20.9879 45.6548 20.6244L47.7501 18.5281C48.1138 18.1635 48.5999 17.9628 49.1143 17.9628C49.6306 17.9628 50.1149 18.1625 50.4785 18.5272L64.6071 32.6558C65.3589 33.4085 65.359 34.6323 64.6073 35.3852Z" fill="#38989F"/>
</svg>
