<svg xmlns="http://www.w3.org/2000/svg" width="92" height="92" viewBox="0 0 92 92" fill="none">
  <g clip-path="url(#clip0_28_14272)">
    <path fill-rule="evenodd" clip-rule="evenodd" d="M45.6594 8.02393C35.6058 8.02393 26.1641 10.1372 17.7642 14.6282C22.6849 17.0794 29.3119 19.0803 34.9562 20.2677C35.176 20.0516 35.3691 19.8466 35.5506 19.6159C35.4394 19.1008 35.2004 18.289 35.1264 17.8559C36.2857 17.0622 39.9295 15.5912 39.9295 15.5912L39.454 11.1551L41.3662 10.4713L43.1695 14.8692C55.63 13.8065 56.9274 19.2677 57.6546 20.8683C63.832 19.9571 70.1062 17.994 74.839 15.3612C68.0818 11.3903 57.716 8.02393 45.6594 8.02393Z" fill="#00363F"/>
    <path fill-rule="evenodd" clip-rule="evenodd" d="M6.13135 23.991C9.40593 25.0327 16.0113 26.9262 27.2153 28.6259C28.1676 27.1779 32.668 22.7917 33.7557 21.5202C24.9721 19.8395 18.1944 16.8974 15.743 15.7869C12.5169 17.7049 8.84615 20.6223 6.13135 23.991ZM58.3098 29.9105C71.4479 29.1959 82.1395 26.5102 86.2025 25.0922C83.7357 21.7131 79.8209 18.431 76.6295 16.4475C74.3477 17.6961 68.1693 20.5769 58.1079 22.1087C59.0689 24.5387 58.3098 29.9105 58.3098 29.9105Z" fill="#00363F"/>
    <path fill-rule="evenodd" clip-rule="evenodd" d="M0.313965 38.6884C3.79059 38.6884 34.0989 38.6884 34.0989 38.6884C36.5159 34.5028 41.9836 31.8164 41.9836 31.8164C41.9836 31.8164 38.3549 31.6003 36.2208 31.4993C34.5809 32.8157 31.1158 36.1912 27.5294 30.3773C19.9105 29.441 10.7259 27.3469 4.99202 25.4863C1.51283 30.3108 0.439072 34.9935 0.313965 38.6884ZM91.2721 38.6884C91.2225 34.9111 89.8956 30.6987 87.4889 26.9452C85.0171 27.6449 74.8573 30.7907 57.9436 31.7149C57.5487 34.0594 56.7155 36.663 56.5389 38.6886C58.051 38.6822 88.5894 38.6884 91.2721 38.6884Z" fill="#00363F"/>
    <path fill-rule="evenodd" clip-rule="evenodd" d="M0.327148 40.4704C1.76121 40.4532 33.0409 40.4781 33.0409 40.4781C32.3161 41.8787 31.7052 44.9769 31.8508 46.612C14.1488 48.1643 6.38669 50.994 3.9058 51.7528C2.08579 48.7731 0.54952 45.1365 0.327148 40.4704ZM56.3629 40.4781C57.6154 40.4743 90.2079 40.4743 91.2621 40.4781C91.0285 45.6261 88.9605 49.7351 87.281 52.2565C85.1644 51.6495 74.538 48.2064 58.151 46.7219C57.3753 45.7008 56.0971 43.2706 56.3629 40.4781Z" fill="#00363F"/>
    <path fill-rule="evenodd" clip-rule="evenodd" d="M4.93701 53.314C6.72643 52.639 16.6691 49.3952 32.0091 48.2732C32.119 49.9438 32.6674 51.8672 32.6674 51.8672C32.6674 51.8672 57.7035 51.8533 58.5301 51.8633C59.8213 50.4462 59.145 48.5098 59.145 48.5098C71.5132 49.4799 83.9382 53.0486 86.1621 53.8336C83.7093 57.1168 79.8302 60.5461 75.7083 62.9657C72.2752 61.6449 63.2796 57.5877 51.2717 56.6177C52.5755 54.7747 57.3672 54.3454 58.5365 54.1728L58.5429 52.4267L32.661 52.4203L32.6674 54.1803C32.6674 54.1803 38.2274 54.2468 39.5693 56.4909C24.6343 57.7397 16.8889 62.5926 15.9699 63.1917C11.7098 60.6773 7.64303 57.201 4.93701 53.314Z" fill="#00363F"/>
    <path fill-rule="evenodd" clip-rule="evenodd" d="M73.6073 64.1556C69.7297 66.2714 64.6734 68.1252 59.9712 69.1751V61.8283C58.3081 61.8475 57.7817 61.8853 56.7464 61.882C54.461 61.873 53.0769 61.6596 51.942 60.848C50.7198 59.9743 50.6152 58.6541 50.7583 58.0317C63.7865 59.2208 73.6073 64.1556 73.6073 64.1556Z" fill="#00363F"/>
    <path fill-rule="evenodd" clip-rule="evenodd" d="M30.7302 69.0689C25.8362 67.9237 21.2772 66.1462 17.6548 64.1503C21.5659 61.4849 29.507 58.5006 40.2395 57.8235C40.3596 58.2299 40.4708 60.0432 39.0853 60.9427C37.2116 62.1573 30.7302 61.7712 30.7302 61.7712V69.0689Z" fill="#00363F"/>
    <path d="M33.8799 63.8945H38.6889V65.3529H35.6655V67.1511H38.4902V68.5976H35.6655V71.761H33.8799V63.8945Z" fill="#00363F"/>
    <path d="M41.8125 63.8945V71.761H40.0264V63.8945H41.8125Z" fill="#00363F"/>
    <path d="M43.3555 63.9995C44.0085 63.8947 44.8612 63.8359 45.7596 63.8359C47.2539 63.8359 48.2226 64.1041 48.9818 64.6768C49.7984 65.2835 50.3122 66.2522 50.3122 67.6407C50.3122 69.1469 49.764 70.1854 49.0047 70.8281C48.176 71.5164 46.9151 71.8428 45.3749 71.8428C44.4521 71.8428 43.7989 71.7848 43.3555 71.7265V63.9995ZM45.141 70.4193C45.2933 70.4537 45.538 70.4537 45.7596 70.4537C47.3708 70.4658 48.4213 69.5792 48.4213 67.6997C48.4328 66.0656 47.4763 65.2014 45.9463 65.2014C45.5499 65.2014 45.2931 65.2368 45.141 65.2719V70.4193Z" fill="#00363F"/>
    <path d="M56.1591 68.4349H53.2639V70.3028H56.4975V71.761H51.4785V63.8945H56.3341V65.3529H53.2639V66.9876H56.1591V68.4349Z" fill="#00363F"/>
    <path d="M11.4494 83.1467C10.9829 83.3031 10.0998 83.519 9.21652 83.519C7.99585 83.519 7.11205 83.2152 6.49658 82.6265C5.88131 82.057 5.54372 81.1931 5.55343 80.2218C5.56368 78.0236 7.18165 76.7673 9.37496 76.7673C10.239 76.7673 10.9035 76.9333 11.2307 77.0904L10.9138 78.2881C10.5464 78.1312 10.0893 78.0031 9.35518 78.0031C8.0944 78.0031 7.1419 78.7098 7.1419 80.1432C7.1419 81.5077 8.00538 82.3127 9.24564 82.3127C9.59349 82.3127 9.87081 82.2732 9.99024 82.2146V80.8302H8.95806V79.662H11.4492L11.4494 83.1467Z" fill="#00363F"/>
    <path d="M16.6125 80.6495H14.1514V82.2197H16.9008V83.4467H12.6323V76.8313H16.7614V78.0578H14.1514V79.4322H16.6125V80.6495Z" fill="#00363F"/>
    <path d="M17.938 83.4469V76.8315H19.7051L21.095 79.2554C21.4912 79.9526 21.8887 80.7775 22.1865 81.5226H22.2158C22.1167 80.6495 22.0869 79.7562 22.0869 78.7644V76.8313H23.4766V83.4467H21.8887L20.4597 80.8949C20.0622 80.1881 19.6257 79.3344 19.2979 78.5587L19.2684 78.5688C19.3079 79.4419 19.3279 80.3746 19.3279 81.4541V83.4467H17.938V83.4469Z" fill="#00363F"/>
    <path d="M24.8371 81.9088C25.2435 82.1147 25.8693 82.3204 26.514 82.3204C27.2092 82.3204 27.5761 82.0365 27.5761 81.6048C27.5761 81.1917 27.259 80.9566 26.4551 80.6716C25.343 80.2893 24.6184 79.6805 24.6184 78.7187C24.6184 77.5902 25.5712 76.7261 27.1489 76.7261C27.9036 76.7261 28.4592 76.8832 28.8566 77.0598L28.5192 78.2676C28.2509 78.1399 27.7746 77.9533 27.1196 77.9533C26.4646 77.9533 26.147 78.247 26.147 78.5908C26.147 79.0127 26.5239 79.1991 27.388 79.5239C28.5691 79.955 29.1243 80.564 29.1243 81.4958C29.1243 82.6054 28.261 83.5472 26.4243 83.5472C25.6606 83.5472 24.9058 83.3518 24.5288 83.1453L24.8371 81.9088Z" fill="#00363F"/>
    <path d="M33.6648 76.8372V80.6453C33.6648 81.7842 34.1013 82.363 34.8752 82.363C35.6695 82.363 36.1061 81.8135 36.1061 80.6453V76.8372H37.6157V80.5469C37.6157 82.5892 36.5727 83.5605 34.8261 83.5605C33.1384 83.5605 32.1465 82.6377 32.1465 80.5277V76.8372H33.6648Z" fill="#00363F"/>
    <path d="M38.9282 83.4469V76.8315H40.6947L42.0847 79.2554C42.4816 79.9526 42.8791 80.7775 43.1769 81.5226H43.2062C43.1066 80.6495 43.0773 79.7562 43.0773 78.7644V76.8313H44.4665V83.4467H42.8789L41.4492 80.8949C41.0525 80.1881 40.6154 79.3344 40.2881 78.5587L40.2586 78.5688C40.2982 79.4419 40.3174 80.3746 40.3174 81.4541V83.4467H38.9282V83.4469Z" fill="#00363F"/>
    <path d="M47.342 81.7545L46.865 83.4526H45.2969L47.342 76.8372H49.3269L51.4015 83.4526H49.7734L49.2578 81.7545H47.342ZM49.0393 80.6356L48.6227 79.2316C48.5031 78.8393 48.3835 78.3486 48.2852 77.9563H48.2648C48.1657 78.3486 48.0668 78.8496 47.9573 79.2316L47.5605 80.6356H49.0393Z" fill="#00363F"/>
    <path d="M54.3448 81.9088C54.7525 82.1147 55.3777 82.3204 56.0232 82.3204C56.7169 82.3204 57.0852 82.0365 57.0852 81.6048C57.0852 81.1917 56.7671 80.9566 55.9631 80.6716C54.8516 80.2893 54.127 79.6805 54.127 78.7187C54.127 77.5902 55.0797 76.7261 56.6583 76.7261C57.4124 76.7261 57.9683 76.8832 58.3651 77.0598L58.0275 78.2676C57.7599 78.1399 57.2832 77.9533 56.628 77.9533C55.9728 77.9533 55.6554 78.247 55.6554 78.5908C55.6554 79.0127 56.0325 79.1991 56.8956 79.5239C58.0767 79.955 58.6327 80.564 58.6327 81.4958C58.6327 82.6054 57.7692 83.5472 55.9333 83.5472C55.1687 83.5472 54.4148 83.3518 54.0376 83.1453L54.3448 81.9088Z" fill="#00363F"/>
    <path d="M61.1682 76.8372V80.6453C61.1682 81.7842 61.6055 82.363 62.3792 82.363C63.1736 82.363 63.6099 81.8135 63.6099 80.6453V76.8372H65.1189V80.5469C65.1189 82.5892 64.0766 83.5605 62.3299 83.5605C60.6422 83.5605 59.6499 82.6377 59.6499 80.5277V76.8372H61.1682Z" fill="#00363F"/>
    <path d="M72.0913 80.92C72.0614 80.1251 72.0314 79.1633 72.0314 78.2015H72.0019C71.7936 79.045 71.5148 79.9877 71.2565 80.7625L70.4432 83.3443H69.2625L68.5472 80.7832C68.3294 80.0075 68.101 79.0655 67.9428 78.2015H67.9221C67.8823 79.095 67.8528 80.1154 67.8032 80.9396L67.6841 83.4526H66.2847L66.7116 76.8372H68.726L69.3818 79.0452C69.59 79.8108 69.7981 80.6357 69.9465 81.4107H69.9765C70.165 80.6453 70.3938 79.7718 70.6118 79.0362L71.3267 76.8372H73.3015L73.6691 83.4526H72.1896L72.0913 80.92Z" fill="#00363F"/>
    <path d="M76.3441 76.8372V80.6453C76.3441 81.7842 76.7806 82.363 77.5553 82.363C78.349 82.363 78.7862 81.8135 78.7862 80.6453V76.8372H80.2942V80.5469C80.2942 82.5892 79.2524 83.5605 77.5053 83.5605C75.818 83.5605 74.8247 82.6377 74.8247 80.5277V76.8372H76.3441Z" fill="#00363F"/>
    <path d="M81.6576 81.9088C82.0653 82.1147 82.6905 82.3204 83.3358 82.3204C84.0299 82.3204 84.398 82.0365 84.398 81.6048C84.398 81.1917 84.0797 80.9566 83.2756 80.6716C82.1646 80.2893 81.44 79.6805 81.44 78.7187C81.44 77.5902 82.3925 76.7261 83.9711 76.7261C84.7252 76.7261 85.2813 76.8832 85.6779 77.0598L85.3405 78.2676C85.0728 78.1399 84.5962 77.9533 83.9408 77.9533C83.2858 77.9533 82.9682 78.247 82.9682 78.5908C82.9682 79.0127 83.3452 79.1991 84.2086 79.5239C85.3894 79.955 85.9453 80.564 85.9453 81.4958C85.9453 82.6054 85.0822 83.5472 83.2461 83.5472C82.4817 83.5472 81.7276 83.3518 81.3506 83.1453L81.6576 81.9088Z" fill="#00363F"/>
  </g>
  <defs>
    <clipPath id="clip0_28_14272">
      <rect width="91.5865" height="91.5865" fill="white"/>
    </clipPath>
  </defs>
</svg>